<svg width="64" height="64" viewBox="0 0 64 64" fill="none" xmlns="http://www.w3.org/2000/svg">
    <path fill-rule="evenodd" clip-rule="evenodd" d="M32 64C49.6731 64 64 49.6731 64 32C64 14.3269 49.6731 0 32 0C14.3269 0 0 14.3269 0 32C0 49.6731 14.3269 64 32 64ZM49.9801 23.9799C51.0736 22.8864 51.0736 21.1135 49.9801 20.0201C48.8866 18.9266 47.1138 18.9266 46.0203 20.0201L26.0002 40.0402L17.9801 32.0201C16.8866 30.9266 15.1138 30.9266 14.0203 32.0201C12.9268 33.1135 12.9268 34.8864 14.0203 35.9799L24.0203 45.9799C25.1138 47.0733 26.8866 47.0733 27.9801 45.9799L49.9801 23.9799Z" fill="#F47529"/>
</svg>
