<svg width="16" height="16" viewBox="0 0 16 16" fill="none" xmlns="http://www.w3.org/2000/svg">
    <path d="M12.1513 0.744999L12.1261 3.725L15.1778 3.745L14.9609 3.535L12.3632 0.955L12.1513 0.744999ZM3.89407 7.52V0.554998C3.89407 0.249998 4.14628 0 4.45397 0H12.2371C12.3834 0 12.5296 0.059999 12.6305 0.164999L15.8335 3.335C15.9395 3.44 16 3.585 16 3.73V15.445C16 15.75 15.7478 16 15.4401 16H4.45397C4.45397 16 4.4338 16 4.41866 16C5.27112 15.975 6.06305 15.705 6.71879 15.255C7.74275 14.555 8.44388 13.425 8.55485 12.13H13.1248C13.3367 12.13 13.5032 11.96 13.5032 11.755C13.5032 11.55 13.3367 11.38 13.1248 11.38H8.55485C8.49433 10.645 8.24212 9.96 7.84363 9.38H13.1248C13.3367 9.38 13.5032 9.21 13.5032 9.005C13.5032 8.8 13.3367 8.63 13.1248 8.63H7.18789C6.50694 8.01 5.62421 7.605 4.65069 7.525C4.52963 7.515 4.40858 7.505 4.28752 7.505C4.15637 7.505 4.02522 7.515 3.89407 7.525V7.52ZM13.5032 6.25C13.5032 6.045 13.3367 5.875 13.1248 5.875H6.76419C6.55738 5.875 6.38588 6.045 6.38588 6.25C6.38588 6.455 6.55738 6.625 6.76419 6.625H13.1248C13.3367 6.625 13.5032 6.455 13.5032 6.25Z" />
    <path d="M4.6507 12.08H6.04288C6.21438 12.08 6.35057 11.965 6.40101 11.815C6.4111 11.78 6.42119 11.74 6.42119 11.705C6.42119 11.68 6.4111 11.66 6.4111 11.64C6.37579 11.465 6.22951 11.33 6.04288 11.33H4.66583V9.5C4.66583 9.47 4.65574 9.445 4.6507 9.415C4.61034 9.25 4.46911 9.125 4.28752 9.125C4.08071 9.125 3.90921 9.295 3.90921 9.5V11.705C3.90921 11.91 4.08071 12.08 4.28752 12.08H4.6507ZM0.756622 11.75C0.756622 9.955 2.13367 8.47 3.89407 8.275C4.02522 8.26 4.15637 8.25 4.28752 8.25H4.31274C4.42371 8.25 4.53972 8.255 4.6507 8.27C5.30139 8.335 5.8966 8.58 6.39597 8.95C6.56747 9.075 6.72888 9.22 6.87516 9.375C7.37957 9.915 7.71753 10.605 7.79824 11.375C7.80832 11.475 7.81337 11.57 7.81841 11.67V11.75C7.81841 11.875 7.81337 12 7.79824 12.125C7.62169 13.76 6.30517 15.065 4.6507 15.23C4.52964 15.245 4.40858 15.25 4.28752 15.25C4.15637 15.25 4.02522 15.24 3.89407 15.225C2.13367 15.03 0.756622 13.545 0.756622 11.75Z" />
</svg>
