<svg width="16" height="16" viewBox="0 0 16 16" xmlns="http://www.w3.org/2000/svg">
    <path d="M6.75 0H0.75C0.335786 0 0 0.335786 0 0.75V4.75C0 5.16421 0.335786 5.5 0.75 5.5H6.75C7.16421 5.5 7.5 5.16421 7.5 4.75V0.75C7.5 0.335786 7.16421 0 6.75 0Z" />
    <path d="M15.25 10.5H9.25C8.83579 10.5 8.5 10.8358 8.5 11.25V15.25C8.5 15.6642 8.83579 16 9.25 16H15.25C15.6642 16 16 15.6642 16 15.25V11.25C16 10.8358 15.6642 10.5 15.25 10.5Z" />
    <path d="M6.75 6.5H0.75C0.335786 6.5 0 6.83579 0 7.25V15.25C0 15.6642 0.335786 16 0.75 16H6.75C7.16421 16 7.5 15.6642 7.5 15.25V7.25C7.5 6.83579 7.16421 6.5 6.75 6.5Z" />
    <path d="M15.25 0H9.25C8.83579 0 8.5 0.335786 8.5 0.75V8.75C8.5 9.16421 8.83579 9.5 9.25 9.5H15.25C15.6642 9.5 16 9.16421 16 8.75V0.75C16 0.335786 15.6642 0 15.25 0Z" />
</svg>
