<svg width="110" height="97" viewBox="0 0 110 97" fill="none" xmlns="http://www.w3.org/2000/svg">
<path d="M81.25 75.1875L81.25 77.6875H81.25V75.1875ZM80.4263 22.7002L78.0049 23.3221C78.2959 24.4553 79.3339 25.2351 80.5033 25.199L80.4263 22.7002ZM28.75 29.25H26.25L26.25 29.2609L28.75 29.25ZM28.751 29.4827L28.3969 31.9575C29.1163 32.0605 29.8449 31.8453 30.3929 31.368C30.9409 30.8907 31.2541 30.1986 31.251 29.4719L28.751 29.4827ZM25.4688 75.1875V77.6875H25.4725L25.4688 75.1875ZM25.5397 75.1874L25.5397 72.6874H25.5359L25.5397 75.1874ZM52.5 93.9375C52.5 95.3182 53.6193 96.4375 55 96.4375C56.3807 96.4375 57.5 95.3182 57.5 93.9375H52.5ZM55 45.1875L56.7678 43.4197C55.7915 42.4434 54.2085 42.4434 53.2322 43.4197L55 45.1875ZM38.2322 58.4197C37.2559 59.396 37.2559 60.979 38.2322 61.9553C39.2085 62.9316 40.7915 62.9316 41.7678 61.9553L38.2322 58.4197ZM68.2322 61.9553C69.2085 62.9316 70.7915 62.9316 71.7678 61.9553C72.7441 60.979 72.7441 59.396 71.7678 58.4197L68.2322 61.9553ZM105 48.9375C105 62.0543 94.3668 72.6875 81.25 72.6875V77.6875C97.1282 77.6875 110 64.8157 110 48.9375H105ZM81.25 25.1875C94.3668 25.1875 105 35.8207 105 48.9375H110C110 33.0593 97.1282 20.1875 81.25 20.1875V25.1875ZM80.5033 25.199C80.7513 25.1914 81.0002 25.1875 81.25 25.1875V20.1875C80.9486 20.1875 80.6483 20.1922 80.3492 20.2014L80.5033 25.199ZM55 5.5C66.0673 5.5 75.3722 13.0722 78.0049 23.3221L82.8477 22.0783C79.6611 9.67167 68.4048 0.5 55 0.5V5.5ZM31.25 29.25C31.25 16.1332 41.8832 5.5 55 5.5V0.5C39.1218 0.5 26.25 13.3718 26.25 29.25H31.25ZM31.251 29.4719L31.25 29.2391L26.25 29.2609L26.251 29.4936L31.251 29.4719ZM25.4688 31.75C26.4643 31.75 27.4418 31.8209 28.3969 31.9575L29.1051 27.008C27.9162 26.8378 26.702 26.75 25.4688 26.75V31.75ZM5 52.2188C5 40.9142 14.1642 31.75 25.4688 31.75V26.75C11.4027 26.75 0 38.1527 0 52.2188H5ZM25.4688 72.6875C14.1642 72.6875 5 63.5233 5 52.2188H0C0 66.2848 11.4027 77.6875 25.4688 77.6875V72.6875ZM25.5359 72.6874L25.465 72.6875L25.4725 77.6875L25.5435 77.6874L25.5359 72.6874ZM36.25 72.6874L25.5397 72.6874L25.5397 77.6874L36.25 77.6874L36.25 72.6874ZM81.25 72.6875L73.75 72.6875L73.75 77.6875L81.25 77.6875L81.25 72.6875ZM57.5 93.9375V45.1875H52.5V93.9375H57.5ZM53.2322 43.4197L38.2322 58.4197L41.7678 61.9553L56.7678 46.9553L53.2322 43.4197ZM53.2322 46.9553L68.2322 61.9553L71.7678 58.4197L56.7678 43.4197L53.2322 46.9553Z" fill="#CBD5E1"/>
</svg>
