<svg width="16" height="16" viewBox="0 0 16 16" xmlns="http://www.w3.org/2000/svg">
    <path d="M11.05 10.84H4.95V11.805H11.05V10.84Z"/>
    <path d="M10.07 2.75995H5.93V3.45995H10.07V2.75995Z" />
    <path d="M2.81 11.805V2.75995H5.18V3.68495C5.18 3.97495 5.41 4.20995 5.7 4.20995H6.915V5.74495C6.915 6.09495 7.2 6.37495 7.545 6.37495H7.625V7.05995C7.625 7.26495 7.795 7.43495 8 7.43495C8.205 7.43495 8.375 7.26495 8.375 7.05995V6.37495H8.455C8.8 6.37495 9.085 6.09495 9.085 5.74495V4.20995H10.3C10.59 4.20995 10.82 3.97495 10.82 3.68495V2.75995H13.19V11.805H11.8V10.685C11.8 10.355 11.535 10.09 11.205 10.09H4.795C4.465 10.09 4.2 10.355 4.2 10.685V11.805H2.81Z" />
    <path d="M8.335 4.21497H7.665V5.62497H8.335V4.21497Z" />
    <path d="M13.465 13.52H12.13C11.92 13.52 11.755 13.69 11.755 13.895C11.755 14.1 11.92 14.27 12.13 14.27H13.465C13.67 14.27 13.84 14.105 13.84 13.895C13.84 13.685 13.67 13.52 13.465 13.52ZM4.97 13.52C4.765 13.52 4.595 13.69 4.595 13.895C4.595 14.1 4.765 14.27 4.97 14.27H6.305C6.515 14.27 6.68 14.105 6.68 13.895C6.68 13.685 6.515 13.52 6.305 13.52H4.97ZM2.48 12.555H13.52C13.755 12.555 13.94 12.365 13.94 12.135V2.43C13.94 2.2 13.755 2.01 13.52 2.01H2.48C2.245 2.01 2.06 2.2 2.06 2.43V12.135C2.06 12.365 2.245 12.555 2.48 12.555ZM3.71 14.27C3.915 14.27 4.085 14.105 4.085 13.895C4.085 13.685 3.915 13.52 3.71 13.52H2.37C2.165 13.52 1.995 13.69 1.995 13.895C1.995 14.1 2.165 14.27 2.37 14.27H3.71ZM16 0.490002V15.51C16 15.78 15.78 16 15.51 16H0.49C0.22 16 0 15.78 0 15.51V0.490002C0 0.220002 0.22 0 0.49 0H15.51C15.78 0 16 0.220002 16 0.490002Z" />
</svg>
